<svg id="svg" version="1.1" xmlns="http://www.w3.org/2000/svg" xmlns:xlink="http://www.w3.org/1999/xlink" width="400" height="400" viewBox="0, 0, 400,400"><g id="svgg"><path id="path0" d="M182.600 0.400 C 182.463 0.621,180.663 0.800,178.576 0.800 C 176.499 0.800,174.800 0.957,174.800 1.149 C 174.800 1.340,172.641 1.626,170.002 1.784 C 167.363 1.941,165.102 2.234,164.978 2.435 C 164.854 2.636,163.784 2.800,162.600 2.800 C 161.416 2.800,160.336 2.980,160.200 3.200 C 160.064 3.420,159.344 3.600,158.600 3.600 C 157.856 3.600,157.136 3.780,157.000 4.000 C 156.864 4.220,155.964 4.400,155.000 4.400 C 154.036 4.400,153.136 4.580,153.000 4.800 C 152.864 5.020,152.133 5.200,151.376 5.200 C 150.619 5.200,150.000 5.380,150.000 5.600 C 150.000 5.820,149.381 6.000,148.624 6.000 C 147.867 6.000,147.136 6.180,147.000 6.400 C 146.864 6.620,146.324 6.800,145.800 6.800 C 145.276 6.800,144.736 6.980,144.600 7.200 C 144.464 7.420,143.744 7.600,143.000 7.600 C 142.256 7.600,141.536 7.780,141.400 8.000 C 141.264 8.220,140.724 8.400,140.200 8.400 C 139.676 8.400,139.136 8.580,139.000 8.800 C 138.864 9.020,138.324 9.200,137.800 9.200 C 137.276 9.200,136.736 9.380,136.600 9.600 C 136.464 9.820,135.924 10.000,135.400 10.000 C 134.876 10.000,134.336 10.180,134.200 10.400 C 134.064 10.620,133.513 10.800,132.976 10.800 C 132.439 10.800,132.000 10.980,132.000 11.200 C 132.000 11.420,131.640 11.600,131.200 11.600 C 130.760 11.600,130.400 11.780,130.400 12.000 C 130.400 12.220,129.860 12.400,129.200 12.400 C 128.540 12.400,128.000 12.580,128.000 12.800 C 128.000 13.020,127.640 13.200,127.200 13.200 C 126.760 13.200,126.400 13.380,126.400 13.600 C 126.400 13.820,125.860 14.000,125.200 14.000 C 124.540 14.000,124.000 14.180,124.000 14.400 C 124.000 14.620,123.475 14.800,122.833 14.800 C 122.192 14.800,121.607 14.937,121.533 15.104 C 121.345 15.533,114.717 18.807,114.045 18.803 C 113.354 18.799,106.900 21.915,106.602 22.396 C 106.483 22.590,105.353 23.249,104.092 23.860 C 102.832 24.471,101.740 25.112,101.667 25.285 C 101.593 25.458,101.228 25.600,100.855 25.600 C 100.482 25.600,99.917 25.960,99.600 26.400 C 99.283 26.840,98.703 27.200,98.312 27.200 C 97.920 27.200,97.600 27.380,97.600 27.600 C 97.600 27.820,97.280 28.000,96.888 28.000 C 96.497 28.000,95.917 28.360,95.600 28.800 C 95.283 29.240,94.703 29.600,94.312 29.600 C 93.920 29.600,93.600 29.780,93.600 30.000 C 93.600 30.220,93.280 30.400,92.888 30.400 C 92.497 30.400,91.917 30.760,91.600 31.200 C 91.283 31.640,90.743 32.000,90.400 32.000 C 90.057 32.000,89.517 32.360,89.200 32.800 C 88.883 33.240,88.421 33.600,88.174 33.600 C 87.926 33.600,87.398 33.960,87.000 34.400 C 86.602 34.840,86.062 35.200,85.800 35.200 C 85.538 35.200,84.991 35.568,84.583 36.019 C 84.176 36.469,83.248 37.119,82.521 37.464 C 81.794 37.809,81.200 38.251,81.200 38.446 C 81.200 38.641,80.967 38.800,80.681 38.800 C 80.396 38.800,79.459 39.520,78.600 40.400 C 77.741 41.280,76.841 42.000,76.600 42.000 C 76.359 42.000,75.459 42.720,74.600 43.600 C 73.741 44.480,72.844 45.200,72.606 45.200 C 72.369 45.200,71.106 46.280,69.800 47.600 C 68.494 48.920,67.241 50.000,67.016 50.000 C 66.477 50.000,50.000 66.470,50.000 67.009 C 50.000 67.238,48.920 68.494,47.600 69.800 C 46.280 71.106,45.200 72.369,45.200 72.606 C 45.200 72.844,44.480 73.741,43.600 74.600 C 42.720 75.459,42.000 76.359,42.000 76.600 C 42.000 76.841,41.280 77.741,40.400 78.600 C 39.520 79.459,38.800 80.396,38.800 80.681 C 38.800 80.967,38.641 81.200,38.446 81.200 C 38.251 81.200,37.809 81.794,37.464 82.521 C 37.119 83.248,36.469 84.176,36.019 84.583 C 35.568 84.991,35.200 85.538,35.200 85.800 C 35.200 86.062,34.840 86.602,34.400 87.000 C 33.960 87.398,33.600 87.926,33.600 88.174 C 33.600 88.421,33.240 88.883,32.800 89.200 C 32.360 89.517,32.000 90.057,32.000 90.400 C 32.000 90.743,31.640 91.283,31.200 91.600 C 30.760 91.917,30.400 92.497,30.400 92.888 C 30.400 93.280,30.220 93.600,30.000 93.600 C 29.780 93.600,29.600 93.920,29.600 94.312 C 29.600 94.703,29.240 95.283,28.800 95.600 C 28.360 95.917,28.000 96.497,28.000 96.888 C 28.000 97.280,27.820 97.600,27.600 97.600 C 27.380 97.600,27.200 97.920,27.200 98.312 C 27.200 98.703,26.840 99.283,26.400 99.600 C 25.960 99.917,25.600 100.482,25.600 100.855 C 25.600 101.228,25.458 101.593,25.285 101.667 C 25.112 101.740,24.471 102.832,23.860 104.092 C 23.249 105.353,22.590 106.483,22.396 106.602 C 21.915 106.900,18.799 113.354,18.803 114.045 C 18.807 114.717,15.533 121.345,15.104 121.533 C 14.937 121.607,14.800 122.192,14.800 122.833 C 14.800 123.475,14.620 124.000,14.400 124.000 C 14.180 124.000,14.000 124.540,14.000 125.200 C 14.000 125.860,13.820 126.400,13.600 126.400 C 13.380 126.400,13.200 126.760,13.200 127.200 C 13.200 127.640,13.020 128.000,12.800 128.000 C 12.580 128.000,12.400 128.540,12.400 129.200 C 12.400 129.860,12.220 130.400,12.000 130.400 C 11.780 130.400,11.600 130.760,11.600 131.200 C 11.600 131.640,11.420 132.000,11.200 132.000 C 10.980 132.000,10.800 132.439,10.800 132.976 C 10.800 133.513,10.620 134.064,10.400 134.200 C 10.180 134.336,10.000 134.876,10.000 135.400 C 10.000 135.924,9.820 136.464,9.600 136.600 C 9.380 136.736,9.200 137.276,9.200 137.800 C 9.200 138.324,9.020 138.864,8.800 139.000 C 8.580 139.136,8.400 139.676,8.400 140.200 C 8.400 140.724,8.220 141.264,8.000 141.400 C 7.780 141.536,7.600 142.256,7.600 143.000 C 7.600 143.744,7.420 144.464,7.200 144.600 C 6.980 144.736,6.800 145.276,6.800 145.800 C 6.800 146.324,6.620 146.864,6.400 147.000 C 6.180 147.136,6.000 147.867,6.000 148.624 C 6.000 149.381,5.820 150.000,5.600 150.000 C 5.380 150.000,5.200 150.619,5.200 151.376 C 5.200 152.133,5.020 152.864,4.800 153.000 C 4.580 153.136,4.400 154.036,4.400 155.000 C 4.400 155.964,4.220 156.864,4.000 157.000 C 3.780 157.136,3.600 157.856,3.600 158.600 C 3.600 159.344,3.420 160.064,3.200 160.200 C 2.980 160.336,2.800 161.416,2.800 162.600 C 2.800 163.784,2.636 164.854,2.435 164.978 C 2.234 165.102,1.941 167.363,1.784 170.002 C 1.626 172.641,1.340 174.800,1.149 174.800 C 0.957 174.800,0.800 176.499,0.800 178.576 C 0.800 180.663,0.621 182.463,0.400 182.600 C -0.148 182.939,-0.148 217.061,0.400 217.400 C 0.621 217.537,0.800 219.337,0.800 221.424 C 0.800 223.501,0.954 225.200,1.141 225.200 C 1.329 225.200,1.609 227.315,1.763 229.900 C 1.917 232.485,2.213 234.771,2.422 234.980 C 2.630 235.189,2.800 236.303,2.800 237.456 C 2.800 238.609,2.980 239.664,3.200 239.800 C 3.420 239.936,3.600 240.656,3.600 241.400 C 3.600 242.144,3.780 242.864,4.000 243.000 C 4.220 243.136,4.400 244.036,4.400 245.000 C 4.400 245.964,4.580 246.864,4.800 247.000 C 5.020 247.136,5.200 247.867,5.200 248.624 C 5.200 249.381,5.380 250.000,5.600 250.000 C 5.820 250.000,6.000 250.720,6.000 251.600 C 6.000 252.480,6.180 253.200,6.400 253.200 C 6.620 253.200,6.800 253.740,6.800 254.400 C 6.800 255.060,6.980 255.600,7.200 255.600 C 7.420 255.600,7.600 256.219,7.600 256.976 C 7.600 257.733,7.780 258.464,8.000 258.600 C 8.220 258.736,8.400 259.276,8.400 259.800 C 8.400 260.324,8.580 260.864,8.800 261.000 C 9.020 261.136,9.200 261.676,9.200 262.200 C 9.200 262.724,9.380 263.264,9.600 263.400 C 9.820 263.536,10.000 264.076,10.000 264.600 C 10.000 265.124,10.180 265.664,10.400 265.800 C 10.620 265.936,10.800 266.361,10.800 266.744 C 10.800 267.619,11.699 269.593,12.100 269.597 C 12.265 269.599,12.400 270.140,12.400 270.800 C 12.400 271.460,12.580 272.000,12.800 272.000 C 13.020 272.000,13.200 272.360,13.200 272.800 C 13.200 273.240,13.380 273.600,13.600 273.600 C 13.820 273.600,14.000 274.140,14.000 274.800 C 14.000 275.460,14.180 276.000,14.400 276.000 C 14.620 276.000,14.800 276.540,14.800 277.200 C 14.800 277.860,14.980 278.400,15.200 278.400 C 15.420 278.400,15.600 278.745,15.600 279.167 C 15.600 279.588,15.735 279.993,15.900 280.067 C 16.344 280.264,18.800 285.214,18.800 285.911 C 18.800 286.631,21.898 293.090,22.389 293.393 C 22.578 293.510,23.416 295.000,24.249 296.703 C 25.082 298.406,26.087 300.091,26.482 300.447 C 26.877 300.803,27.200 301.388,27.200 301.747 C 27.200 302.106,27.380 302.400,27.600 302.400 C 27.820 302.400,28.000 302.720,28.000 303.112 C 28.000 303.503,28.360 304.083,28.800 304.400 C 29.240 304.717,29.600 305.297,29.600 305.688 C 29.600 306.080,29.780 306.400,30.000 306.400 C 30.220 306.400,30.400 306.720,30.400 307.112 C 30.400 307.503,30.760 308.083,31.200 308.400 C 31.640 308.717,32.000 309.257,32.000 309.600 C 32.000 309.943,32.360 310.483,32.800 310.800 C 33.240 311.117,33.600 311.657,33.600 312.000 C 33.600 312.343,33.960 312.883,34.400 313.200 C 34.840 313.517,35.200 313.977,35.200 314.223 C 35.200 314.694,37.989 318.506,38.500 318.733 C 38.665 318.807,38.800 319.136,38.800 319.465 C 38.800 319.794,39.520 320.754,40.400 321.600 C 41.280 322.446,42.000 323.324,42.000 323.553 C 42.000 323.782,42.720 324.682,43.600 325.553 C 44.480 326.424,45.200 327.311,45.200 327.524 C 45.200 327.737,46.280 328.956,47.600 330.233 C 48.920 331.510,50.000 332.746,50.000 332.981 C 50.000 333.533,66.474 350.000,67.026 350.000 C 67.257 350.000,68.490 351.080,69.767 352.400 C 71.044 353.720,72.263 354.800,72.476 354.800 C 72.689 354.800,73.554 355.520,74.400 356.400 C 75.246 357.280,76.146 358.000,76.400 358.000 C 76.654 358.000,77.554 358.720,78.400 359.600 C 79.246 360.480,80.182 361.200,80.480 361.200 C 80.779 361.200,81.283 361.560,81.600 362.000 C 81.917 362.440,82.431 362.800,82.741 362.800 C 83.052 362.800,83.597 363.115,83.953 363.500 C 85.057 364.693,87.767 366.672,88.706 366.970 C 89.198 367.126,89.600 367.422,89.600 367.627 C 89.600 367.832,89.920 368.000,90.312 368.000 C 90.703 368.000,91.283 368.360,91.600 368.800 C 91.917 369.240,92.497 369.600,92.888 369.600 C 93.280 369.600,93.600 369.780,93.600 370.000 C 93.600 370.220,93.920 370.400,94.312 370.400 C 94.703 370.400,95.283 370.760,95.600 371.200 C 95.917 371.640,96.497 372.000,96.888 372.000 C 97.280 372.000,97.600 372.180,97.600 372.400 C 97.600 372.620,97.894 372.800,98.253 372.800 C 98.612 372.800,99.197 373.119,99.553 373.509 C 99.909 373.899,101.460 374.834,103.000 375.586 C 104.540 376.339,106.104 377.208,106.476 377.517 C 107.359 378.253,114.031 381.600,114.614 381.600 C 114.862 381.600,115.869 382.005,116.852 382.500 C 117.836 382.995,119.306 383.659,120.120 383.975 C 120.934 384.291,121.600 384.696,121.600 384.875 C 121.600 385.054,122.140 385.200,122.800 385.200 C 123.460 385.200,124.000 385.380,124.000 385.600 C 124.000 385.820,124.540 386.000,125.200 386.000 C 125.860 386.000,126.400 386.180,126.400 386.400 C 126.400 386.620,126.760 386.800,127.200 386.800 C 127.640 386.800,128.000 386.980,128.000 387.200 C 128.000 387.420,128.540 387.600,129.200 387.600 C 129.860 387.600,130.401 387.735,130.403 387.900 C 130.407 388.301,132.381 389.200,133.256 389.200 C 133.639 389.200,134.064 389.380,134.200 389.600 C 134.336 389.820,134.876 390.000,135.400 390.000 C 135.924 390.000,136.464 390.180,136.600 390.400 C 136.736 390.620,137.276 390.800,137.800 390.800 C 138.324 390.800,138.864 390.980,139.000 391.200 C 139.136 391.420,139.676 391.600,140.200 391.600 C 140.724 391.600,141.264 391.780,141.400 392.000 C 141.536 392.220,142.267 392.400,143.024 392.400 C 143.781 392.400,144.400 392.580,144.400 392.800 C 144.400 393.020,144.940 393.200,145.600 393.200 C 146.260 393.200,146.800 393.380,146.800 393.600 C 146.800 393.820,147.520 394.000,148.400 394.000 C 149.280 394.000,150.000 394.180,150.000 394.400 C 150.000 394.620,150.619 394.800,151.376 394.800 C 152.133 394.800,152.864 394.980,153.000 395.200 C 153.136 395.420,154.036 395.600,155.000 395.600 C 155.964 395.600,156.864 395.780,157.000 396.000 C 157.136 396.220,157.856 396.400,158.600 396.400 C 159.344 396.400,160.064 396.580,160.200 396.800 C 160.336 397.020,161.427 397.200,162.624 397.200 C 163.821 397.200,164.800 397.380,164.800 397.600 C 164.800 397.820,165.779 398.000,166.976 398.000 C 168.173 398.000,169.264 398.180,169.400 398.400 C 169.536 398.620,170.771 398.800,172.144 398.800 C 173.607 398.800,174.847 399.007,175.140 399.300 C 175.869 400.029,224.131 400.029,224.860 399.300 C 225.153 399.007,226.393 398.800,227.856 398.800 C 229.229 398.800,230.464 398.620,230.600 398.400 C 230.736 398.180,231.827 398.000,233.024 398.000 C 234.221 398.000,235.200 397.820,235.200 397.600 C 235.200 397.380,236.179 397.200,237.376 397.200 C 238.573 397.200,239.664 397.020,239.800 396.800 C 239.936 396.580,240.656 396.400,241.400 396.400 C 242.144 396.400,242.864 396.220,243.000 396.000 C 243.136 395.780,244.036 395.600,245.000 395.600 C 245.964 395.600,246.864 395.420,247.000 395.200 C 247.136 394.980,247.867 394.800,248.624 394.800 C 249.381 394.800,250.000 394.620,250.000 394.400 C 250.000 394.180,250.720 394.000,251.600 394.000 C 252.480 394.000,253.200 393.820,253.200 393.600 C 253.200 393.380,253.740 393.200,254.400 393.200 C 255.060 393.200,255.600 393.020,255.600 392.800 C 255.600 392.580,256.219 392.400,256.976 392.400 C 257.733 392.400,258.464 392.220,258.600 392.000 C 258.736 391.780,259.276 391.600,259.800 391.600 C 260.324 391.600,260.864 391.420,261.000 391.200 C 261.136 390.980,261.676 390.800,262.200 390.800 C 262.724 390.800,263.264 390.620,263.400 390.400 C 263.536 390.180,264.076 390.000,264.600 390.000 C 265.124 390.000,265.664 389.820,265.800 389.600 C 265.936 389.380,266.391 389.200,266.811 389.200 C 267.232 389.200,268.217 388.840,269.000 388.400 C 269.783 387.960,270.653 387.600,270.932 387.600 C 271.659 387.600,273.593 386.656,273.597 386.300 C 273.599 386.135,274.140 386.000,274.800 386.000 C 275.460 386.000,276.000 385.820,276.000 385.600 C 276.000 385.380,276.540 385.200,277.200 385.200 C 277.860 385.200,278.400 385.020,278.400 384.800 C 278.400 384.580,278.760 384.400,279.200 384.400 C 279.640 384.400,280.000 384.234,280.000 384.032 C 280.000 383.829,280.585 383.537,281.300 383.382 C 282.015 383.227,283.078 382.763,283.662 382.350 C 284.246 381.938,284.974 381.600,285.280 381.600 C 285.950 381.600,292.570 378.316,293.524 377.510 C 293.896 377.195,295.594 376.262,297.297 375.436 C 299.000 374.610,300.493 373.773,300.614 373.578 C 300.735 373.382,301.501 372.907,302.317 372.524 C 303.133 372.140,304.149 371.505,304.575 371.113 C 305.002 370.721,305.587 370.400,305.875 370.400 C 306.164 370.400,306.400 370.220,306.400 370.000 C 306.400 369.780,306.720 369.600,307.112 369.600 C 307.503 369.600,308.083 369.240,308.400 368.800 C 308.717 368.360,309.297 368.000,309.688 368.000 C 310.080 368.000,310.400 367.823,310.400 367.608 C 310.400 367.392,310.837 367.106,311.371 366.972 C 311.904 366.838,312.652 366.384,313.033 365.964 C 313.413 365.544,313.932 365.200,314.187 365.200 C 314.442 365.200,315.168 364.660,315.800 364.000 C 316.432 363.340,317.146 362.800,317.387 362.800 C 317.627 362.800,318.083 362.440,318.400 362.000 C 318.717 361.560,319.221 361.200,319.520 361.200 C 319.818 361.200,320.754 360.480,321.600 359.600 C 322.446 358.720,323.346 358.000,323.600 358.000 C 323.854 358.000,324.754 357.280,325.600 356.400 C 326.446 355.520,327.376 354.794,327.669 354.786 C 327.961 354.778,329.179 353.698,330.374 352.386 C 331.570 351.074,332.771 350.000,333.043 350.000 C 333.689 350.000,350.000 333.689,350.000 333.043 C 350.000 332.771,351.074 331.570,352.386 330.374 C 353.698 329.179,354.778 327.961,354.786 327.669 C 354.794 327.376,355.520 326.446,356.400 325.600 C 357.280 324.754,358.000 323.854,358.000 323.600 C 358.000 323.346,358.720 322.446,359.600 321.600 C 360.480 320.754,361.200 319.818,361.200 319.520 C 361.200 319.221,361.560 318.717,362.000 318.400 C 362.440 318.083,362.800 317.627,362.800 317.387 C 362.800 317.146,363.340 316.432,364.000 315.800 C 364.660 315.168,365.200 314.442,365.200 314.187 C 365.200 313.932,365.544 313.413,365.964 313.033 C 366.384 312.652,366.838 311.904,366.972 311.371 C 367.106 310.837,367.392 310.400,367.608 310.400 C 367.823 310.400,368.000 310.080,368.000 309.688 C 368.000 309.297,368.360 308.717,368.800 308.400 C 369.240 308.083,369.600 307.503,369.600 307.112 C 369.600 306.720,369.780 306.400,370.000 306.400 C 370.220 306.400,370.400 306.164,370.400 305.875 C 370.400 305.587,370.721 305.002,371.113 304.575 C 371.505 304.149,372.140 303.133,372.524 302.317 C 372.907 301.501,373.382 300.735,373.578 300.614 C 373.773 300.493,374.610 299.000,375.436 297.297 C 376.262 295.594,377.195 293.896,377.510 293.524 C 378.316 292.570,381.600 285.950,381.600 285.280 C 381.600 284.974,381.938 284.246,382.350 283.662 C 382.763 283.078,383.227 282.015,383.382 281.300 C 383.537 280.585,383.829 280.000,384.032 280.000 C 384.234 280.000,384.400 279.460,384.400 278.800 C 384.400 278.140,384.580 277.600,384.800 277.600 C 385.020 277.600,385.200 277.240,385.200 276.800 C 385.200 276.360,385.380 276.000,385.600 276.000 C 385.820 276.000,386.000 275.460,386.000 274.800 C 386.000 274.140,386.135 273.599,386.300 273.597 C 386.656 273.593,387.600 271.659,387.600 270.932 C 387.600 270.653,387.960 269.783,388.400 269.000 C 388.840 268.217,389.200 267.232,389.200 266.811 C 389.200 266.391,389.380 265.936,389.600 265.800 C 389.820 265.664,390.000 265.124,390.000 264.600 C 390.000 264.076,390.180 263.536,390.400 263.400 C 390.620 263.264,390.800 262.724,390.800 262.200 C 390.800 261.676,390.980 261.136,391.200 261.000 C 391.420 260.864,391.600 260.324,391.600 259.800 C 391.600 259.276,391.780 258.736,392.000 258.600 C 392.220 258.464,392.400 257.733,392.400 256.976 C 392.400 256.219,392.580 255.600,392.800 255.600 C 393.020 255.600,393.200 255.060,393.200 254.400 C 393.200 253.740,393.380 253.200,393.600 253.200 C 393.820 253.200,394.000 252.480,394.000 251.600 C 394.000 250.720,394.180 250.000,394.400 250.000 C 394.620 250.000,394.800 249.381,394.800 248.624 C 394.800 247.867,394.980 247.136,395.200 247.000 C 395.420 246.864,395.600 245.964,395.600 245.000 C 395.600 244.036,395.780 243.136,396.000 243.000 C 396.220 242.864,396.400 242.144,396.400 241.400 C 396.400 240.656,396.580 239.936,396.800 239.800 C 397.020 239.664,397.200 238.573,397.200 237.376 C 397.200 236.179,397.380 235.200,397.600 235.200 C 397.820 235.200,398.000 234.221,398.000 233.024 C 398.000 231.827,398.180 230.736,398.400 230.600 C 398.620 230.464,398.800 229.229,398.800 227.856 C 398.800 226.393,399.007 225.153,399.300 224.860 C 399.689 224.471,399.800 218.955,399.800 200.000 C 399.800 181.045,399.689 175.529,399.300 175.140 C 399.007 174.847,398.800 173.607,398.800 172.144 C 398.800 170.771,398.620 169.536,398.400 169.400 C 398.180 169.264,398.000 168.173,398.000 166.976 C 398.000 165.779,397.820 164.800,397.600 164.800 C 397.380 164.800,397.200 163.821,397.200 162.624 C 397.200 161.427,397.020 160.336,396.800 160.200 C 396.580 160.064,396.400 159.344,396.400 158.600 C 396.400 157.856,396.220 157.136,396.000 157.000 C 395.780 156.864,395.600 155.964,395.600 155.000 C 395.600 154.036,395.420 153.136,395.200 153.000 C 394.980 152.864,394.800 152.133,394.800 151.376 C 394.800 150.619,394.620 150.000,394.400 150.000 C 394.180 150.000,394.000 149.280,394.000 148.400 C 394.000 147.520,393.820 146.800,393.600 146.800 C 393.380 146.800,393.200 146.260,393.200 145.600 C 393.200 144.940,393.020 144.400,392.800 144.400 C 392.580 144.400,392.400 143.781,392.400 143.024 C 392.400 142.267,392.220 141.536,392.000 141.400 C 391.780 141.264,391.600 140.724,391.600 140.200 C 391.600 139.676,391.420 139.136,391.200 139.000 C 390.980 138.864,390.800 138.324,390.800 137.800 C 390.800 137.276,390.620 136.736,390.400 136.600 C 390.180 136.464,390.000 135.924,390.000 135.400 C 390.000 134.876,389.820 134.336,389.600 134.200 C 389.380 134.064,389.200 133.639,389.200 133.256 C 389.200 132.381,388.301 130.407,387.900 130.403 C 387.735 130.401,387.600 129.860,387.600 129.200 C 387.600 128.540,387.420 128.000,387.200 128.000 C 386.980 128.000,386.800 127.640,386.800 127.200 C 386.800 126.760,386.620 126.400,386.400 126.400 C 386.180 126.400,386.000 125.860,386.000 125.200 C 386.000 124.540,385.820 124.000,385.600 124.000 C 385.380 124.000,385.200 123.640,385.200 123.200 C 385.200 122.760,385.020 122.400,384.800 122.400 C 384.580 122.400,384.400 122.068,384.400 121.661 C 384.400 120.939,383.921 119.759,382.370 116.662 C 381.947 115.816,381.600 114.908,381.600 114.644 C 381.600 114.039,378.274 107.384,377.517 106.476 C 377.208 106.104,376.339 104.540,375.586 103.000 C 374.834 101.460,373.899 99.909,373.509 99.553 C 373.119 99.197,372.800 98.612,372.800 98.253 C 372.800 97.894,372.620 97.600,372.400 97.600 C 372.180 97.600,372.000 97.280,372.000 96.888 C 372.000 96.497,371.640 95.917,371.200 95.600 C 370.760 95.283,370.400 94.703,370.400 94.312 C 370.400 93.920,370.220 93.600,370.000 93.600 C 369.780 93.600,369.600 93.280,369.600 92.888 C 369.600 92.497,369.240 91.917,368.800 91.600 C 368.360 91.283,368.000 90.703,368.000 90.312 C 368.000 89.920,367.832 89.600,367.627 89.600 C 367.422 89.600,367.126 89.198,366.970 88.706 C 366.672 87.767,364.693 85.057,363.500 83.953 C 363.115 83.597,362.800 83.052,362.800 82.741 C 362.800 82.431,362.440 81.917,362.000 81.600 C 361.560 81.283,361.200 80.779,361.200 80.480 C 361.200 80.182,360.480 79.246,359.600 78.400 C 358.720 77.554,358.000 76.654,358.000 76.400 C 358.000 76.146,357.280 75.246,356.400 74.400 C 355.520 73.554,354.800 72.689,354.800 72.476 C 354.800 72.263,353.720 71.044,352.400 69.767 C 351.080 68.490,350.000 67.257,350.000 67.026 C 350.000 66.474,333.533 50.000,332.981 50.000 C 332.746 50.000,331.510 48.920,330.233 47.600 C 328.956 46.280,327.737 45.200,327.524 45.200 C 327.311 45.200,326.424 44.480,325.553 43.600 C 324.682 42.720,323.782 42.000,323.553 42.000 C 323.324 42.000,322.446 41.280,321.600 40.400 C 320.754 39.520,319.794 38.800,319.465 38.800 C 319.136 38.800,318.807 38.665,318.733 38.500 C 318.506 37.989,314.694 35.200,314.223 35.200 C 313.977 35.200,313.517 34.840,313.200 34.400 C 312.883 33.960,312.343 33.600,312.000 33.600 C 311.657 33.600,311.117 33.240,310.800 32.800 C 310.483 32.360,309.943 32.000,309.600 32.000 C 309.257 32.000,308.717 31.640,308.400 31.200 C 308.083 30.760,307.503 30.400,307.112 30.400 C 306.720 30.400,306.400 30.220,306.400 30.000 C 306.400 29.780,306.080 29.600,305.688 29.600 C 305.297 29.600,304.717 29.240,304.400 28.800 C 304.083 28.360,303.503 28.000,303.112 28.000 C 302.720 28.000,302.400 27.820,302.400 27.600 C 302.400 27.380,302.106 27.200,301.747 27.200 C 301.388 27.200,300.803 26.877,300.447 26.482 C 300.091 26.087,298.406 25.082,296.703 24.249 C 295.000 23.416,293.510 22.578,293.393 22.389 C 293.090 21.898,286.631 18.800,285.911 18.800 C 285.214 18.800,280.264 16.344,280.067 15.900 C 279.993 15.735,279.588 15.600,279.167 15.600 C 278.745 15.600,278.400 15.420,278.400 15.200 C 278.400 14.980,277.860 14.800,277.200 14.800 C 276.540 14.800,276.000 14.620,276.000 14.400 C 276.000 14.180,275.460 14.000,274.800 14.000 C 274.140 14.000,273.600 13.820,273.600 13.600 C 273.600 13.380,273.240 13.200,272.800 13.200 C 272.360 13.200,272.000 13.020,272.000 12.800 C 272.000 12.580,271.460 12.400,270.800 12.400 C 270.140 12.400,269.599 12.265,269.597 12.100 C 269.593 11.699,267.619 10.800,266.744 10.800 C 266.361 10.800,265.936 10.620,265.800 10.400 C 265.664 10.180,265.124 10.000,264.600 10.000 C 264.076 10.000,263.536 9.820,263.400 9.600 C 263.264 9.380,262.724 9.200,262.200 9.200 C 261.676 9.200,261.136 9.020,261.000 8.800 C 260.864 8.580,260.324 8.400,259.800 8.400 C 259.276 8.400,258.736 8.220,258.600 8.000 C 258.464 7.780,257.733 7.600,256.976 7.600 C 256.219 7.600,255.600 7.420,255.600 7.200 C 255.600 6.980,255.060 6.800,254.400 6.800 C 253.740 6.800,253.200 6.620,253.200 6.400 C 253.200 6.180,252.480 6.000,251.600 6.000 C 250.720 6.000,250.000 5.820,250.000 5.600 C 250.000 5.380,249.381 5.200,248.624 5.200 C 247.867 5.200,247.136 5.020,247.000 4.800 C 246.864 4.580,245.964 4.400,245.000 4.400 C 244.036 4.400,243.136 4.220,243.000 4.000 C 242.864 3.780,242.144 3.600,241.400 3.600 C 240.656 3.600,239.936 3.420,239.800 3.200 C 239.664 2.980,238.609 2.800,237.456 2.800 C 236.303 2.800,235.189 2.630,234.980 2.422 C 234.771 2.213,232.485 1.917,229.900 1.763 C 227.315 1.609,225.200 1.329,225.200 1.141 C 225.200 0.954,223.501 0.800,221.424 0.800 C 219.337 0.800,217.537 0.621,217.400 0.400 C 217.061 -0.148,182.939 -0.148,182.600 0.400 M209.400 32.000 C 209.542 32.229,211.604 32.400,214.224 32.400 C 216.741 32.400,218.800 32.557,218.800 32.749 C 218.800 32.940,220.959 33.226,223.598 33.384 C 226.237 33.541,228.498 33.834,228.622 34.035 C 228.746 34.236,229.816 34.400,231.000 34.400 C 232.184 34.400,233.264 34.580,233.400 34.800 C 233.536 35.020,234.256 35.200,235.000 35.200 C 235.744 35.200,236.464 35.380,236.600 35.600 C 236.736 35.820,237.647 36.000,238.624 36.000 C 239.601 36.000,240.400 36.180,240.400 36.400 C 240.400 36.620,241.120 36.800,242.000 36.800 C 242.880 36.800,243.600 36.980,243.600 37.200 C 243.600 37.420,244.140 37.600,244.800 37.600 C 245.460 37.600,246.000 37.780,246.000 38.000 C 246.000 38.220,246.439 38.400,246.976 38.400 C 247.513 38.400,248.064 38.580,248.200 38.800 C 248.336 39.020,249.056 39.200,249.800 39.200 C 250.544 39.200,251.264 39.380,251.400 39.600 C 251.536 39.820,252.076 40.000,252.600 40.000 C 253.124 40.000,253.664 40.180,253.800 40.400 C 253.936 40.620,254.391 40.800,254.811 40.800 C 255.232 40.800,256.217 41.160,257.000 41.600 C 257.783 42.040,258.683 42.400,259.000 42.400 C 259.317 42.400,260.217 42.760,261.000 43.200 C 261.783 43.640,262.779 44.000,263.212 44.000 C 263.645 44.000,264.000 44.180,264.000 44.400 C 264.000 44.620,264.360 44.800,264.800 44.800 C 265.240 44.800,265.600 44.980,265.600 45.200 C 265.600 45.420,266.125 45.600,266.767 45.600 C 267.408 45.600,267.993 45.741,268.067 45.913 C 268.263 46.374,275.738 50.000,276.491 50.000 C 276.844 50.000,277.193 50.142,277.267 50.315 C 277.340 50.488,278.432 51.129,279.692 51.740 C 280.953 52.351,282.085 53.014,282.208 53.213 C 282.331 53.411,283.570 54.118,284.963 54.782 C 286.355 55.447,287.720 56.262,287.996 56.595 C 288.272 56.928,288.718 57.200,288.987 57.200 C 289.256 57.200,289.802 57.560,290.200 58.000 C 290.598 58.440,291.138 58.800,291.400 58.800 C 291.662 58.800,292.202 59.160,292.600 59.600 C 292.998 60.040,293.538 60.400,293.800 60.400 C 294.062 60.400,294.602 60.760,295.000 61.200 C 295.398 61.640,295.950 62.000,296.226 62.000 C 296.503 62.000,297.183 62.540,297.739 63.200 C 298.294 63.860,298.996 64.400,299.299 64.400 C 299.602 64.400,300.368 64.940,301.000 65.600 C 301.632 66.260,302.373 66.800,302.646 66.800 C 302.919 66.800,303.496 67.250,303.929 67.800 C 304.361 68.350,304.923 68.800,305.177 68.800 C 305.431 68.800,306.881 70.060,308.400 71.600 C 309.919 73.140,311.348 74.400,311.577 74.400 C 312.109 74.400,325.600 87.905,325.600 88.438 C 325.600 88.659,326.860 90.081,328.400 91.600 C 329.940 93.119,331.200 94.568,331.200 94.820 C 331.200 95.073,331.740 95.783,332.400 96.400 C 333.060 97.017,333.600 97.687,333.600 97.891 C 333.600 98.094,334.050 98.683,334.600 99.200 C 335.150 99.717,335.600 100.344,335.600 100.595 C 335.600 100.845,336.140 101.568,336.800 102.200 C 337.460 102.832,338.000 103.558,338.000 103.813 C 338.000 104.068,338.360 104.602,338.800 105.000 C 339.240 105.398,339.600 105.938,339.600 106.200 C 339.600 106.462,339.960 107.002,340.400 107.400 C 340.840 107.798,341.200 108.338,341.200 108.600 C 341.200 108.862,341.560 109.402,342.000 109.800 C 342.440 110.198,342.800 110.744,342.800 111.013 C 342.800 111.282,343.072 111.728,343.405 112.004 C 343.738 112.280,344.553 113.645,345.218 115.037 C 345.882 116.430,346.589 117.669,346.787 117.792 C 346.986 117.915,347.649 119.047,348.260 120.308 C 348.871 121.568,349.512 122.660,349.685 122.733 C 349.858 122.807,350.000 123.086,350.000 123.354 C 350.000 124.063,350.949 125.993,351.300 125.997 C 351.465 125.999,351.601 126.315,351.601 126.700 C 351.602 127.085,352.232 128.650,353.001 130.177 C 353.771 131.704,354.400 133.279,354.400 133.677 C 354.400 134.075,354.580 134.400,354.800 134.400 C 355.020 134.400,355.200 134.760,355.200 135.200 C 355.200 135.640,355.380 136.000,355.600 136.000 C 355.820 136.000,356.000 136.355,356.000 136.788 C 356.000 137.221,356.360 138.217,356.800 139.000 C 357.240 139.783,357.600 140.683,357.600 141.000 C 357.600 141.317,357.960 142.217,358.400 143.000 C 358.840 143.783,359.200 144.768,359.200 145.189 C 359.200 145.609,359.380 146.064,359.600 146.200 C 359.820 146.336,360.000 146.876,360.000 147.400 C 360.000 147.924,360.180 148.464,360.400 148.600 C 360.620 148.736,360.800 149.456,360.800 150.200 C 360.800 150.944,360.980 151.664,361.200 151.800 C 361.420 151.936,361.600 152.487,361.600 153.024 C 361.600 153.561,361.780 154.000,362.000 154.000 C 362.220 154.000,362.400 154.540,362.400 155.200 C 362.400 155.860,362.580 156.400,362.800 156.400 C 363.020 156.400,363.200 157.120,363.200 158.000 C 363.200 158.880,363.380 159.600,363.600 159.600 C 363.820 159.600,364.000 160.399,364.000 161.376 C 364.000 162.353,364.180 163.264,364.400 163.400 C 364.620 163.536,364.800 164.256,364.800 165.000 C 364.800 165.744,364.980 166.464,365.200 166.600 C 365.420 166.736,365.600 167.816,365.600 169.000 C 365.600 170.184,365.780 171.264,366.000 171.400 C 366.220 171.536,366.400 172.627,366.400 173.824 C 366.400 175.021,366.580 176.000,366.800 176.000 C 367.025 176.000,367.200 177.125,367.200 178.576 C 367.200 179.993,367.380 181.264,367.600 181.400 C 367.829 181.541,368.000 183.596,368.000 186.200 C 368.000 188.804,368.171 190.859,368.400 191.000 C 368.647 191.153,368.800 194.671,368.800 200.224 C 368.800 205.941,368.655 209.200,368.400 209.200 C 368.157 209.200,368.000 210.992,368.000 213.776 C 368.000 216.396,367.829 218.458,367.600 218.600 C 367.380 218.736,367.200 220.007,367.200 221.424 C 367.200 222.875,367.025 224.000,366.800 224.000 C 366.578 224.000,366.400 225.067,366.400 226.400 C 366.400 227.733,366.222 228.800,366.000 228.800 C 365.780 228.800,365.600 229.779,365.600 230.976 C 365.600 232.173,365.420 233.264,365.200 233.400 C 364.980 233.536,364.800 234.256,364.800 235.000 C 364.800 235.744,364.620 236.464,364.400 236.600 C 364.180 236.736,364.000 237.647,364.000 238.624 C 364.000 239.601,363.820 240.400,363.600 240.400 C 363.380 240.400,363.200 241.120,363.200 242.000 C 363.200 242.880,363.020 243.600,362.800 243.600 C 362.580 243.600,362.400 244.140,362.400 244.800 C 362.400 245.460,362.220 246.000,362.000 246.000 C 361.780 246.000,361.600 246.540,361.600 247.200 C 361.600 247.860,361.420 248.400,361.200 248.400 C 360.980 248.400,360.800 249.019,360.800 249.776 C 360.800 250.533,360.620 251.264,360.400 251.400 C 360.180 251.536,360.000 252.076,360.000 252.600 C 360.000 253.124,359.820 253.664,359.600 253.800 C 359.380 253.936,359.200 254.391,359.200 254.811 C 359.200 255.232,358.840 256.217,358.400 257.000 C 357.960 257.783,357.600 258.683,357.600 259.000 C 357.600 259.317,357.240 260.217,356.800 261.000 C 356.360 261.783,356.000 262.653,356.000 262.932 C 356.000 263.659,355.056 265.593,354.700 265.597 C 354.535 265.599,354.400 266.067,354.400 266.638 C 354.400 267.209,354.072 268.154,353.671 268.738 C 352.672 270.193,351.600 272.586,351.600 273.360 C 351.600 273.712,351.420 274.000,351.200 274.000 C 350.980 274.000,350.800 274.360,350.800 274.800 C 350.800 275.240,350.620 275.600,350.400 275.600 C 350.180 275.600,350.000 275.960,350.000 276.400 C 350.000 276.840,349.820 277.200,349.600 277.200 C 349.380 277.200,349.200 277.560,349.200 278.000 C 349.200 278.440,349.054 278.800,348.875 278.800 C 348.696 278.800,348.299 279.439,347.992 280.219 C 347.686 281.000,347.200 281.834,346.913 282.072 C 346.625 282.311,345.855 283.628,345.200 285.000 C 344.545 286.372,343.738 287.720,343.405 287.996 C 343.072 288.272,342.800 288.718,342.800 288.987 C 342.800 289.256,342.440 289.802,342.000 290.200 C 341.560 290.598,341.200 291.138,341.200 291.400 C 341.200 291.662,340.840 292.202,340.400 292.600 C 339.960 292.998,339.600 293.538,339.600 293.800 C 339.600 294.062,339.240 294.602,338.800 295.000 C 338.360 295.398,338.000 295.932,338.000 296.187 C 338.000 296.442,337.460 297.168,336.800 297.800 C 336.140 298.432,335.600 299.155,335.600 299.405 C 335.600 299.656,335.150 300.283,334.600 300.800 C 334.050 301.317,333.600 301.962,333.600 302.234 C 333.600 302.506,333.060 303.183,332.400 303.739 C 331.740 304.294,331.200 304.973,331.200 305.248 C 331.200 305.523,329.940 306.978,328.400 308.482 C 326.860 309.986,325.600 311.405,325.600 311.637 C 325.600 312.187,312.187 325.600,311.637 325.600 C 311.405 325.600,309.986 326.860,308.482 328.400 C 306.978 329.940,305.523 331.200,305.248 331.200 C 304.973 331.200,304.294 331.740,303.739 332.400 C 303.183 333.060,302.506 333.600,302.234 333.600 C 301.962 333.600,301.317 334.050,300.800 334.600 C 300.283 335.150,299.656 335.600,299.405 335.600 C 299.155 335.600,298.432 336.140,297.800 336.800 C 297.168 337.460,296.442 338.000,296.187 338.000 C 295.932 338.000,295.398 338.360,295.000 338.800 C 294.602 339.240,294.062 339.600,293.800 339.600 C 293.538 339.600,292.998 339.960,292.600 340.400 C 292.202 340.840,291.662 341.200,291.400 341.200 C 291.138 341.200,290.598 341.560,290.200 342.000 C 289.802 342.440,289.256 342.800,288.987 342.800 C 288.718 342.800,288.272 343.072,287.996 343.405 C 287.720 343.738,286.372 344.545,285.000 345.200 C 283.628 345.855,282.311 346.625,282.072 346.913 C 281.834 347.200,281.000 347.686,280.219 347.992 C 279.439 348.299,278.800 348.696,278.800 348.875 C 278.800 349.054,278.440 349.200,278.000 349.200 C 277.560 349.200,277.200 349.380,277.200 349.600 C 277.200 349.820,276.840 350.000,276.400 350.000 C 275.960 350.000,275.600 350.180,275.600 350.400 C 275.600 350.620,275.240 350.800,274.800 350.800 C 274.360 350.800,274.000 350.980,274.000 351.200 C 274.000 351.420,273.712 351.600,273.360 351.600 C 272.586 351.600,270.193 352.672,268.738 353.671 C 268.154 354.072,267.209 354.400,266.638 354.400 C 266.067 354.400,265.599 354.535,265.597 354.700 C 265.593 355.056,263.659 356.000,262.932 356.000 C 262.653 356.000,261.783 356.360,261.000 356.800 C 260.217 357.240,259.317 357.600,259.000 357.600 C 258.683 357.600,257.783 357.960,257.000 358.400 C 256.217 358.840,255.232 359.200,254.811 359.200 C 254.391 359.200,253.936 359.380,253.800 359.600 C 253.664 359.820,253.124 360.000,252.600 360.000 C 252.076 360.000,251.536 360.180,251.400 360.400 C 251.264 360.620,250.533 360.800,249.776 360.800 C 249.019 360.800,248.400 360.980,248.400 361.200 C 248.400 361.420,247.860 361.600,247.200 361.600 C 246.540 361.600,246.000 361.780,246.000 362.000 C 246.000 362.220,245.460 362.400,244.800 362.400 C 244.140 362.400,243.600 362.580,243.600 362.800 C 243.600 363.020,242.880 363.200,242.000 363.200 C 241.120 363.200,240.400 363.380,240.400 363.600 C 240.400 363.820,239.601 364.000,238.624 364.000 C 237.647 364.000,236.736 364.180,236.600 364.400 C 236.464 364.620,235.744 364.800,235.000 364.800 C 234.256 364.800,233.536 364.980,233.400 365.200 C 233.264 365.420,232.173 365.600,230.976 365.600 C 229.779 365.600,228.800 365.780,228.800 366.000 C 228.800 366.222,227.733 366.400,226.400 366.400 C 225.067 366.400,224.000 366.578,224.000 366.800 C 224.000 367.025,222.875 367.200,221.424 367.200 C 220.007 367.200,218.736 367.380,218.600 367.600 C 218.458 367.829,216.396 368.000,213.776 368.000 C 210.992 368.000,209.200 368.157,209.200 368.400 C 209.200 368.655,205.941 368.800,200.224 368.800 C 194.671 368.800,191.153 368.647,191.000 368.400 C 190.859 368.171,188.804 368.000,186.200 368.000 C 183.596 368.000,181.541 367.829,181.400 367.600 C 181.264 367.380,179.993 367.200,178.576 367.200 C 177.125 367.200,176.000 367.025,176.000 366.800 C 176.000 366.580,175.021 366.400,173.824 366.400 C 172.627 366.400,171.536 366.220,171.400 366.000 C 171.264 365.780,170.184 365.600,169.000 365.600 C 167.816 365.600,166.736 365.420,166.600 365.200 C 166.464 364.980,165.744 364.800,165.000 364.800 C 164.256 364.800,163.536 364.620,163.400 364.400 C 163.264 364.180,162.353 364.000,161.376 364.000 C 160.399 364.000,159.600 363.820,159.600 363.600 C 159.600 363.380,158.880 363.200,158.000 363.200 C 157.120 363.200,156.400 363.020,156.400 362.800 C 156.400 362.580,155.860 362.400,155.200 362.400 C 154.540 362.400,154.000 362.220,154.000 362.000 C 154.000 361.780,153.561 361.600,153.024 361.600 C 152.487 361.600,151.936 361.420,151.800 361.200 C 151.664 360.980,150.944 360.800,150.200 360.800 C 149.456 360.800,148.736 360.620,148.600 360.400 C 148.464 360.180,147.924 360.000,147.400 360.000 C 146.876 360.000,146.336 359.820,146.200 359.600 C 146.064 359.380,145.609 359.200,145.189 359.200 C 144.768 359.200,143.783 358.840,143.000 358.400 C 142.217 357.960,141.317 357.600,141.000 357.600 C 140.683 357.600,139.783 357.240,139.000 356.800 C 138.217 356.360,137.221 356.000,136.788 356.000 C 136.355 356.000,136.000 355.820,136.000 355.600 C 136.000 355.380,135.640 355.200,135.200 355.200 C 134.760 355.200,134.400 355.020,134.400 354.800 C 134.400 354.580,134.075 354.400,133.677 354.400 C 133.279 354.400,131.704 353.771,130.177 353.001 C 128.650 352.232,127.085 351.602,126.700 351.601 C 126.315 351.601,125.999 351.465,125.997 351.300 C 125.993 350.949,124.063 350.000,123.354 350.000 C 123.086 350.000,122.807 349.858,122.733 349.685 C 122.660 349.512,121.568 348.871,120.308 348.260 C 119.047 347.649,117.915 346.986,117.792 346.787 C 117.669 346.589,116.430 345.882,115.037 345.218 C 113.645 344.553,112.280 343.738,112.004 343.405 C 111.728 343.072,111.282 342.800,111.013 342.800 C 110.744 342.800,110.198 342.440,109.800 342.000 C 109.402 341.560,108.862 341.200,108.600 341.200 C 108.338 341.200,107.798 340.840,107.400 340.400 C 107.002 339.960,106.462 339.600,106.200 339.600 C 105.938 339.600,105.398 339.240,105.000 338.800 C 104.602 338.360,104.068 338.000,103.813 338.000 C 103.558 338.000,102.832 337.460,102.200 336.800 C 101.568 336.140,100.845 335.600,100.595 335.600 C 100.344 335.600,99.717 335.150,99.200 334.600 C 98.683 334.050,98.094 333.600,97.891 333.600 C 97.687 333.600,97.017 333.060,96.400 332.400 C 95.783 331.740,95.073 331.200,94.820 331.200 C 94.568 331.200,93.119 329.940,91.600 328.400 C 90.081 326.860,88.659 325.600,88.438 325.600 C 87.905 325.600,74.400 312.109,74.400 311.577 C 74.400 311.348,73.140 309.919,71.600 308.400 C 70.060 306.881,68.800 305.431,68.800 305.177 C 68.800 304.923,68.350 304.361,67.800 303.929 C 67.250 303.496,66.800 302.919,66.800 302.646 C 66.800 302.373,66.260 301.632,65.600 301.000 C 64.940 300.368,64.400 299.602,64.400 299.299 C 64.400 298.996,63.860 298.294,63.200 297.739 C 62.540 297.183,62.000 296.503,62.000 296.226 C 62.000 295.950,61.640 295.398,61.200 295.000 C 60.760 294.602,60.400 294.062,60.400 293.800 C 60.400 293.538,60.040 292.998,59.600 292.600 C 59.160 292.202,58.800 291.662,58.800 291.400 C 58.800 291.138,58.440 290.598,58.000 290.200 C 57.560 289.802,57.200 289.256,57.200 288.987 C 57.200 288.718,56.928 288.272,56.595 287.996 C 56.262 287.720,55.447 286.355,54.782 284.963 C 54.118 283.570,53.411 282.331,53.213 282.208 C 53.014 282.085,52.351 280.953,51.740 279.692 C 51.129 278.432,50.488 277.340,50.315 277.267 C 50.142 277.193,50.000 276.844,50.000 276.491 C 50.000 275.738,46.374 268.263,45.913 268.067 C 45.741 267.993,45.600 267.408,45.600 266.767 C 45.600 266.125,45.420 265.600,45.200 265.600 C 44.980 265.600,44.800 265.240,44.800 264.800 C 44.800 264.360,44.620 264.000,44.400 264.000 C 44.180 264.000,44.000 263.645,44.000 263.212 C 44.000 262.779,43.640 261.783,43.200 261.000 C 42.760 260.217,42.400 259.317,42.400 259.000 C 42.400 258.683,42.040 257.783,41.600 257.000 C 41.160 256.217,40.800 255.232,40.800 254.811 C 40.800 254.391,40.620 253.936,40.400 253.800 C 40.180 253.664,40.000 253.124,40.000 252.600 C 40.000 252.076,39.820 251.536,39.600 251.400 C 39.380 251.264,39.200 250.544,39.200 249.800 C 39.200 249.056,39.020 248.336,38.800 248.200 C 38.580 248.064,38.400 247.513,38.400 246.976 C 38.400 246.439,38.220 246.000,38.000 246.000 C 37.780 246.000,37.600 245.460,37.600 244.800 C 37.600 244.140,37.420 243.600,37.200 243.600 C 36.980 243.600,36.800 242.880,36.800 242.000 C 36.800 241.120,36.620 240.400,36.400 240.400 C 36.180 240.400,36.000 239.601,36.000 238.624 C 36.000 237.647,35.820 236.736,35.600 236.600 C 35.380 236.464,35.200 235.744,35.200 235.000 C 35.200 234.256,35.020 233.536,34.800 233.400 C 34.580 233.264,34.400 232.184,34.400 231.000 C 34.400 229.816,34.236 228.746,34.035 228.622 C 33.834 228.498,33.541 226.237,33.384 223.598 C 33.226 220.959,32.940 218.800,32.749 218.800 C 32.557 218.800,32.400 216.741,32.400 214.224 C 32.400 211.604,32.229 209.542,32.000 209.400 C 31.458 209.065,31.458 190.935,32.000 190.600 C 32.227 190.460,32.400 188.470,32.400 186.000 C 32.400 183.606,32.557 181.550,32.748 181.432 C 32.940 181.314,33.225 179.054,33.383 176.410 C 33.541 173.767,33.834 171.502,34.035 171.378 C 34.236 171.254,34.400 170.184,34.400 169.000 C 34.400 167.816,34.580 166.736,34.800 166.600 C 35.020 166.464,35.200 165.733,35.200 164.976 C 35.200 164.219,35.380 163.600,35.600 163.600 C 35.820 163.600,36.000 162.700,36.000 161.600 C 36.000 160.500,36.180 159.600,36.400 159.600 C 36.620 159.600,36.800 158.880,36.800 158.000 C 36.800 157.120,36.980 156.400,37.200 156.400 C 37.420 156.400,37.600 155.860,37.600 155.200 C 37.600 154.540,37.780 154.000,38.000 154.000 C 38.220 154.000,38.400 153.561,38.400 153.024 C 38.400 152.487,38.580 151.936,38.800 151.800 C 39.020 151.664,39.200 150.944,39.200 150.200 C 39.200 149.456,39.380 148.736,39.600 148.600 C 39.820 148.464,40.000 147.924,40.000 147.400 C 40.000 146.876,40.180 146.336,40.400 146.200 C 40.620 146.064,40.800 145.609,40.800 145.189 C 40.800 144.768,41.160 143.783,41.600 143.000 C 42.040 142.217,42.400 141.221,42.400 140.788 C 42.400 140.355,42.580 140.000,42.800 140.000 C 43.020 140.000,43.200 139.640,43.200 139.200 C 43.200 138.760,43.380 138.400,43.600 138.400 C 43.820 138.400,44.000 137.860,44.000 137.200 C 44.000 136.540,44.180 136.000,44.400 136.000 C 44.620 136.000,44.800 135.640,44.800 135.200 C 44.800 134.760,44.980 134.400,45.200 134.400 C 45.420 134.400,45.599 134.085,45.597 133.700 C 45.596 133.315,46.480 131.200,47.562 129.000 C 48.645 126.800,50.276 123.430,51.187 121.510 C 52.098 119.591,53.008 117.919,53.209 117.795 C 53.410 117.670,54.118 116.430,54.782 115.037 C 55.447 113.645,56.262 112.280,56.595 112.004 C 56.928 111.728,57.200 111.254,57.200 110.951 C 57.200 110.648,57.350 110.400,57.532 110.400 C 57.715 110.400,58.119 109.905,58.430 109.300 C 58.740 108.695,59.311 107.909,59.697 107.553 C 60.084 107.197,60.400 106.652,60.400 106.341 C 60.400 106.031,60.760 105.517,61.200 105.200 C 61.640 104.883,62.000 104.375,62.000 104.072 C 62.000 103.769,62.540 103.017,63.200 102.400 C 63.860 101.783,64.400 101.070,64.400 100.814 C 64.400 100.558,64.940 99.894,65.600 99.339 C 66.260 98.783,66.800 98.083,66.800 97.783 C 66.800 97.482,67.250 96.786,67.800 96.236 C 68.350 95.686,68.800 95.039,68.800 94.799 C 68.800 94.558,70.060 93.119,71.600 91.600 C 73.140 90.081,74.400 88.663,74.400 88.448 C 74.400 87.938,87.938 74.400,88.448 74.400 C 88.663 74.400,90.081 73.140,91.600 71.600 C 93.119 70.060,94.558 68.800,94.799 68.800 C 95.039 68.800,95.686 68.350,96.236 67.800 C 96.786 67.250,97.482 66.800,97.783 66.800 C 98.083 66.800,98.783 66.260,99.339 65.600 C 99.894 64.940,100.558 64.400,100.814 64.400 C 101.070 64.400,101.783 63.860,102.400 63.200 C 103.017 62.540,103.769 62.000,104.072 62.000 C 104.375 62.000,104.883 61.640,105.200 61.200 C 105.517 60.760,106.031 60.400,106.341 60.400 C 106.652 60.400,107.197 60.084,107.553 59.697 C 107.909 59.311,108.695 58.740,109.300 58.430 C 109.905 58.119,110.400 57.715,110.400 57.532 C 110.400 57.350,110.648 57.200,110.951 57.200 C 111.254 57.200,111.728 56.928,112.004 56.595 C 112.280 56.262,113.645 55.447,115.037 54.782 C 116.430 54.118,117.670 53.410,117.795 53.209 C 117.919 53.008,119.591 52.098,121.510 51.187 C 123.430 50.276,126.800 48.645,129.000 47.562 C 131.200 46.480,133.315 45.596,133.700 45.597 C 134.085 45.599,134.400 45.420,134.400 45.200 C 134.400 44.980,134.760 44.800,135.200 44.800 C 135.640 44.800,136.000 44.620,136.000 44.400 C 136.000 44.180,136.540 44.000,137.200 44.000 C 137.860 44.000,138.400 43.820,138.400 43.600 C 138.400 43.380,138.760 43.200,139.200 43.200 C 139.640 43.200,140.000 43.020,140.000 42.800 C 140.000 42.580,140.355 42.400,140.788 42.400 C 141.221 42.400,142.217 42.040,143.000 41.600 C 143.783 41.160,144.768 40.800,145.189 40.800 C 145.609 40.800,146.064 40.620,146.200 40.400 C 146.336 40.180,146.876 40.000,147.400 40.000 C 147.924 40.000,148.464 39.820,148.600 39.600 C 148.736 39.380,149.456 39.200,150.200 39.200 C 150.944 39.200,151.664 39.020,151.800 38.800 C 151.936 38.580,152.487 38.400,153.024 38.400 C 153.561 38.400,154.000 38.220,154.000 38.000 C 154.000 37.780,154.540 37.600,155.200 37.600 C 155.860 37.600,156.400 37.420,156.400 37.200 C 156.400 36.980,157.120 36.800,158.000 36.800 C 158.880 36.800,159.600 36.620,159.600 36.400 C 159.600 36.180,160.500 36.000,161.600 36.000 C 162.700 36.000,163.600 35.820,163.600 35.600 C 163.600 35.380,164.219 35.200,164.976 35.200 C 165.733 35.200,166.464 35.020,166.600 34.800 C 166.736 34.580,167.816 34.400,169.000 34.400 C 170.184 34.400,171.254 34.236,171.378 34.035 C 171.502 33.834,173.767 33.541,176.410 33.383 C 179.054 33.225,181.314 32.940,181.432 32.748 C 181.550 32.557,183.606 32.400,186.000 32.400 C 188.470 32.400,190.460 32.227,190.600 32.000 C 190.753 31.752,194.330 31.600,200.000 31.600 C 205.670 31.600,209.247 31.752,209.400 32.000 M196.200 105.600 C 196.064 105.820,195.634 106.000,195.244 106.000 C 193.270 106.000,186.400 111.156,186.400 112.637 C 186.400 112.893,186.130 113.326,185.800 113.600 C 185.470 113.874,185.200 114.490,185.200 114.969 C 185.200 115.448,185.021 116.019,184.802 116.238 C 184.547 116.493,184.368 128.432,184.302 149.618 L 184.200 182.600 151.618 182.702 C 130.698 182.768,118.893 182.947,118.638 183.202 C 118.419 183.421,117.947 183.600,117.588 183.600 C 115.700 183.600,109.200 188.423,109.200 189.823 C 109.200 190.072,108.840 190.602,108.400 191.000 C 107.960 191.398,107.600 192.135,107.600 192.638 C 107.600 193.141,107.420 193.664,107.200 193.800 C 106.971 193.942,106.800 196.004,106.800 198.624 C 106.800 201.408,106.957 203.200,107.200 203.200 C 107.420 203.200,107.600 203.740,107.600 204.400 C 107.600 205.060,107.780 205.600,108.000 205.600 C 108.220 205.600,108.400 205.894,108.400 206.253 C 108.400 206.612,108.716 207.197,109.103 207.553 C 109.489 207.909,110.049 208.675,110.347 209.256 C 110.644 209.837,111.363 210.557,111.944 210.856 C 112.525 211.155,113.349 211.715,113.775 212.100 C 114.202 212.485,114.787 212.800,115.075 212.800 C 115.364 212.800,115.600 212.980,115.600 213.200 C 115.600 213.420,115.960 213.600,116.400 213.600 C 116.840 213.600,117.200 213.780,117.200 214.000 C 117.200 214.220,118.179 214.400,119.376 214.400 C 120.573 214.400,121.664 214.580,121.800 214.800 C 121.961 215.061,132.871 215.200,153.224 215.200 L 184.400 215.200 184.400 248.000 C 184.400 266.396,184.553 280.800,184.749 280.800 C 184.941 280.800,185.209 281.497,185.345 282.348 C 185.481 283.199,185.868 284.124,186.204 284.403 C 186.540 284.682,187.090 285.489,187.425 286.197 C 187.761 286.905,188.523 287.735,189.118 288.042 C 189.713 288.349,190.549 288.915,190.975 289.300 C 191.402 289.685,191.987 290.000,192.275 290.000 C 192.564 290.000,192.800 290.180,192.800 290.400 C 192.800 290.620,193.160 290.800,193.600 290.800 C 194.040 290.800,194.400 290.980,194.400 291.200 C 194.400 291.420,195.300 291.600,196.400 291.600 C 197.500 291.600,198.400 291.780,198.400 292.000 C 198.400 292.220,199.120 292.400,200.000 292.400 C 200.880 292.400,201.600 292.220,201.600 292.000 C 201.600 291.780,202.500 291.600,203.600 291.600 C 204.700 291.600,205.600 291.420,205.600 291.200 C 205.600 290.980,205.960 290.800,206.400 290.800 C 206.840 290.800,207.200 290.620,207.200 290.400 C 207.200 290.180,207.520 290.000,207.912 290.000 C 208.303 290.000,208.883 289.640,209.200 289.200 C 209.517 288.760,210.015 288.400,210.306 288.400 C 210.963 288.400,212.800 286.606,212.800 285.965 C 212.800 285.706,213.115 285.201,213.500 284.843 C 214.469 283.941,215.200 282.560,215.200 281.629 C 215.200 281.199,215.380 280.736,215.600 280.600 C 215.861 280.438,216.000 269.063,216.000 247.776 L 216.000 215.200 246.976 215.200 C 267.196 215.200,278.039 215.061,278.200 214.800 C 278.336 214.580,279.301 214.400,280.344 214.400 C 282.199 214.400,284.391 213.697,284.397 213.100 C 284.399 212.935,284.720 212.800,285.112 212.800 C 285.503 212.800,286.083 212.440,286.400 212.000 C 286.717 211.560,287.215 211.200,287.506 211.200 C 288.193 211.200,290.000 209.393,290.000 208.706 C 290.000 208.415,290.360 207.917,290.800 207.600 C 291.240 207.283,291.600 206.703,291.600 206.312 C 291.600 205.920,291.780 205.600,292.000 205.600 C 292.220 205.600,292.400 205.060,292.400 204.400 C 292.400 203.740,292.580 203.200,292.800 203.200 C 293.044 203.200,293.200 201.333,293.200 198.400 C 293.200 195.467,293.044 193.600,292.800 193.600 C 292.580 193.600,292.400 193.178,292.400 192.662 C 292.400 192.146,292.040 191.398,291.600 191.000 C 291.160 190.602,290.800 190.072,290.800 189.823 C 290.800 188.396,284.292 183.600,282.356 183.600 C 281.966 183.600,281.536 183.420,281.400 183.200 C 281.238 182.939,269.863 182.800,248.576 182.800 L 216.000 182.800 216.000 149.824 C 216.000 128.271,215.861 116.762,215.600 116.600 C 215.380 116.464,215.200 115.941,215.200 115.438 C 215.200 114.935,214.840 114.198,214.400 113.800 C 213.960 113.402,213.600 112.873,213.600 112.624 C 213.600 111.142,206.716 106.000,204.732 106.000 C 204.329 106.000,204.000 105.820,204.000 105.600 C 204.000 105.362,202.475 105.200,200.224 105.200 C 198.137 105.200,196.337 105.379,196.200 105.600 " stroke="none" fill="#fcfcfc" fill-rule="evenodd"></path><path id="path1" d="" stroke="none" fill="#100fcfc" fill-rule="evenodd"></path><path id="path2" d="" stroke="none" fill="#100fcfc" fill-rule="evenodd"></path><path id="path3" d="" stroke="none" fill="#100fcfc" fill-rule="evenodd"></path><path id="path4" d="" stroke="none" fill="#100fcfc" fill-rule="evenodd"></path></g></svg>